<svg width="311" height="311" viewBox="0 0 311 311" fill="none" xmlns="http://www.w3.org/2000/svg">
<g clip-path="url(#clip0_2109_3)">
<path d="M142.625 -0.335923C143.693 -0.34258 144.76 -0.349237 145.86 -0.356096C148.105 -0.366148 150.351 -0.370915 152.596 -0.370591C155.964 -0.37494 159.331 -0.411274 162.699 -0.449205C180.183 -0.541626 196.694 1.35734 213.125 7.62501C214.485 8.13379 214.485 8.13379 215.873 8.65285C235.723 16.3448 252.765 28.2996 268 43C268.717 43.6652 269.433 44.3303 270.172 45.0156C292.224 66.0091 310.456 99.584 311.291 130.373C311.317 132.75 311.332 135.127 311.336 137.504C311.343 138.781 311.349 140.059 311.356 141.375C311.368 144.068 311.372 146.762 311.371 149.455C311.37 152.181 311.384 154.906 311.412 157.632C311.559 172.562 311.679 186.712 307 201C306.692 201.988 306.384 202.977 306.066 203.995C305.221 206.553 304.299 209.055 303.312 211.563C302.972 212.439 302.632 213.315 302.281 214.218C297.208 226.894 290.371 238.227 282 249C281.434 249.77 280.868 250.539 280.285 251.332C265.975 270.214 247.872 284.163 227 295C225.946 295.554 224.891 296.109 223.805 296.68C201.326 307.775 175.853 311.655 151 311C149.859 310.983 148.718 310.966 147.543 310.949C125.187 310.143 103.929 303.892 84 294C82.5614 293.29 82.5614 293.29 81.0938 292.566C59.9814 281.607 36.2768 262.221 25 241C25 240.34 25 239.68 25 239C24.34 239 23.68 239 23 239C3.66771 203.515 -6.38403 164.601 2.00001 124C2.13955 123.322 2.27909 122.645 2.42286 121.946C5.48802 107.362 10.0459 94.1899 17 81C17.4731 80.0629 17.9462 79.1257 18.4336 78.1602C24.6078 66.2491 32.7275 55.657 42 46C42.4568 45.5068 42.9136 45.0136 43.3843 44.5054C68.4363 17.4744 105.554 -0.252658 142.625 -0.335923Z" fill="white"/>
<path d="M129.354 77.2712C130.371 77.2655 131.388 77.2598 132.436 77.2539C135.784 77.2429 139.129 77.2749 142.477 77.3086C144.809 77.3121 147.141 77.3135 149.473 77.3127C154.354 77.3174 159.234 77.3422 164.114 77.3825C170.37 77.4336 176.625 77.445 182.881 77.4427C187.694 77.4435 192.506 77.46 197.319 77.4817C199.626 77.4912 201.933 77.4972 204.24 77.4994C207.462 77.5059 210.683 77.5321 213.905 77.5642C214.858 77.5628 215.81 77.5614 216.792 77.56C222.849 77.6481 226.17 78.4971 230.787 82.5808C232.746 86.4874 232.425 90.3976 232.404 94.7063C232.411 95.6905 232.418 96.6747 232.425 97.6887C232.443 100.945 232.439 104.201 232.434 107.457C232.438 109.721 232.443 111.986 232.449 114.25C232.458 118.999 232.456 123.748 232.446 128.496C232.435 134.576 232.455 140.655 232.484 146.735C232.502 151.413 232.502 156.091 232.496 160.769C232.496 163.01 232.502 165.251 232.515 167.492C232.53 170.63 232.519 173.767 232.502 176.905C232.516 178.289 232.516 178.289 232.531 179.7C232.463 185.637 231.438 189.123 228 194C224.852 196.414 221.881 196.466 218 196C213.575 193.657 211.181 191.48 209 187C208.601 183.855 208.601 183.855 208.568 180.282C208.552 179.301 208.552 179.301 208.537 178.299C208.507 176.151 208.497 174.004 208.488 171.855C208.471 170.36 208.453 168.865 208.434 167.37C208.386 163.446 208.357 159.522 208.33 155.598C208.301 151.589 208.254 147.581 208.209 143.572C208.123 135.715 208.056 127.858 208 120C205.917 121.917 203.835 123.835 201.754 125.754C200.875 126.563 200.875 126.563 199.978 127.388C192.62 134.066 192.62 134.066 186.062 141.5C183.692 144.373 181.046 146.622 178.223 149.039C173.478 153.225 168.85 157.645 164.938 162.625C162.642 165.439 160.041 167.618 157.285 169.973C152.994 173.779 149.025 177.916 145 182C142.134 184.875 139.256 187.738 136.371 190.594C135.06 191.896 133.749 193.198 132.438 194.5C131.778 195.151 131.119 195.802 130.439 196.473C127.054 199.841 123.964 203.249 121 207C119.802 208.118 118.573 209.203 117.312 210.25C112.623 214.257 108.321 218.603 104 223C99.3333 227.667 94.6667 232.333 90 237C86.9321 235.664 85.1842 234.311 83.125 231.687C80.3605 228.316 77.4243 225.69 74 223C75.6226 219.093 78.2786 216.241 81.125 213.187C81.6171 212.655 82.1092 212.122 82.6162 211.573C85.9516 208.007 89.4288 204.723 93.1641 201.574C97.4562 197.894 101.334 193.851 104.938 189.5C107.684 186.228 110.744 183.519 113.988 180.75C118.32 176.982 122.277 172.92 125.938 168.5C127.991 166.054 130.112 163.983 132.562 161.937C136.538 158.572 139.996 154.84 143.5 151C150.219 143.641 150.219 143.641 153.938 140.562C158.68 136.625 162.7 132.002 166.863 127.473C170.33 123.723 173.836 120.253 177.789 117.01C180.799 114.274 183.502 111.292 186.242 108.289C186.797 107.684 187.352 107.079 187.924 106.456C189.284 104.973 190.642 103.486 192 102C190.667 101.994 190.667 101.994 189.307 101.989C180.92 101.951 172.534 101.894 164.148 101.816C159.837 101.777 155.526 101.744 151.214 101.729C147.051 101.714 142.889 101.679 138.726 101.632C137.14 101.617 135.554 101.609 133.968 101.608C131.742 101.606 129.517 101.579 127.291 101.546C126.025 101.537 124.759 101.528 123.455 101.519C119.382 100.907 117.2 99.5442 114 97C112.16 94.2862 111.615 91.8811 111.438 88.625C111.343 87.5305 111.343 87.5305 111.246 86.414C113.857 78.0543 121.773 77.1365 129.354 77.2712Z" fill="#030303"/>
<path d="M310 173C310.33 173 310.66 173 311 173C313.083 199.791 297.956 228.466 282 249C281.434 249.77 280.868 250.539 280.285 251.332C265.975 270.214 247.872 284.163 227 295C225.946 295.554 224.891 296.109 223.805 296.68C201.198 307.839 175.964 311.418 151 311C151 310.34 151 309.68 151 309C151.957 308.978 151.957 308.978 152.933 308.956C166.212 308.618 179.026 307.928 192 305C192.987 304.777 192.987 304.777 193.995 304.55C201.471 302.823 208.526 300.624 215.438 297.246C217.354 296.314 219.307 295.454 221.273 294.633C233.893 289.265 245.609 281.916 256 273C256.55 272.528 257.101 272.056 257.667 271.57C265.254 264.98 271.919 258.031 278 250C278.675 249.129 279.351 248.257 280.047 247.359C296.89 225.032 305.192 200.251 310 173Z" fill="white"/>
<path d="M171 -1.63913e-05C201.46 -2.51503 234.913 14.1732 257.633 33.3804C261.188 36.486 264.603 39.7224 268 43C268.717 43.6651 269.433 44.3303 270.172 45.0156C291.16 64.9964 310.185 98.046 311.109 127.484C311.123 130.66 311.09 133.826 311 137C310.67 137 310.34 137 310 137C309.841 135.742 309.683 134.484 309.52 133.187C308.03 122.01 305.855 111.596 302 101C301.558 99.7586 301.116 98.5173 300.66 97.2383C295.022 82.292 287.082 69.3352 277 57C276.145 55.9293 275.291 54.8576 274.438 53.7851C270.789 48.7309 270.789 48.7309 266 45C266 44.34 266 43.68 266 43C265.415 42.7396 264.83 42.4792 264.227 42.2109C261.854 40.9204 260.306 39.508 258.375 37.625C234.621 16.2385 202.491 4.38847 171 0.999984C171 0.669984 171 0.339984 171 -1.63913e-05Z" fill="white"/>
<path d="M143 -1.33142e-05C143 0.329987 143 0.659987 143 0.999987C141.693 1.15854 140.386 1.3171 139.039 1.48046C105.848 5.72166 76.6961 17.5865 51.6814 40.1396C47.322 44 47.322 44 44 44C68.3039 17.334 106.663 -1.15972 143 -1.33142e-05Z" fill="white"/>
<path d="M8 205C10.2871 207.082 11.5358 208.828 12.6875 211.688C14.9342 217.003 17.5401 222.112 20.1824 227.239C22.1405 231.089 23.7474 234.848 25 239C24.34 239 23.68 239 23 239C8 211.467 8 211.467 8 205Z" fill="white"/>
<path d="M43 45C43 49.3992 40.1931 51.4645 37.375 54.5625C32.9574 59.5318 29.2186 64.4001 26.0859 70.3047C25.7276 70.8641 25.3692 71.4236 25 72C24.34 72 23.68 72 23 72C26.7224 61.5811 35.2842 52.7158 43 45Z" fill="white"/>
<path d="M29 245C32.8592 248.816 36.6121 252.717 40.3125 256.688C41.1372 257.559 41.1372 257.559 41.9785 258.447C46 262.768 46 262.768 46 265C44 265 44 265 42.5547 263.602C40.692 261.41 38.8352 259.215 37 257C35.8921 255.67 35.8921 255.67 34.7617 254.312C29 247.272 29 247.272 29 245Z" fill="white"/>
<path d="M16 224C20.1791 227.56 22.6856 232.087 25 237C25 237.66 25 238.32 25 239C24.34 239 23.68 239 23 239C21.8282 236.878 20.6625 234.752 19.5 232.625C19.1661 232.022 18.8323 231.418 18.4883 230.797C16 226.227 16 226.227 16 224Z" fill="white"/>
</g>
<defs>
<clipPath id="clip0_2109_3">
<rect width="311" height="311" fill="white"/>
</clipPath>
</defs>
</svg>
