<svg width="22" height="22" viewBox="0 0 22 22" fill="none" xmlns="http://www.w3.org/2000/svg">
<path d="M19.8775 1.1626L1.93758 9.40148C0.726915 9.92459 0.726915 10.84 1.71746 11.1016L6.22996 12.8017L7.99093 19.0789C8.21105 19.7328 8.10099 19.9943 8.65129 19.9943C9.09154 19.9943 9.31166 19.7328 9.53178 19.4712C9.64184 19.3405 10.6324 18.1635 11.733 16.8557L16.3556 20.9098C17.236 21.4329 17.7863 21.1713 18.0065 19.9943L21.0882 2.86269C21.4183 1.42415 20.6479 0.639495 19.8775 1.1626ZM17.5662 5.08588L8.98148 14.371L8.65129 18.6866L6.89032 12.4093L17.0159 4.82433C17.4562 4.432 17.8964 4.69355 17.5662 5.08588Z" fill="white"/>
</svg>
